<?xml version="1.0" standalone="no"?><!DOCTYPE svg PUBLIC "-//W3C//DTD SVG 1.1//EN" "http://www.w3.org/Graphics/SVG/1.1/DTD/svg11.dtd"><svg xmlns:xlink="http://www.w3.org/1999/xlink" version="1.1" style="font-family:dosis, sans-serif;font-size:12px;" xmlns="http://www.w3.org/2000/svg" width="600" height="400"><desc>Created with Highcharts 4.2.7</desc><defs><clipPath id="highcharts-138"><rect x="1" y="1" width="275" height="504"></rect></clipPath></defs><rect x="84" y="36" width="506" height="277" fill="#ffffff"></rect><path fill="rgb(255, 255, 255)" fill-opacity=" .5" d="M 83.5 36 L 83.5 313 167.5 313 167.5 36"></path><path fill="rgb(255, 255, 255)" fill-opacity=" .5" d="M 252.5 36 L 252.5 313 336.5 313 336.5 36"></path><path fill="rgb(255, 255, 255)" fill-opacity=" .5" d="M 420.5 36 L 420.5 313 505.5 313 505.5 36"></path><g class="highcharts-grid"></g><g class="highcharts-grid"><path fill="none" d="M 83.5 36 L 83.5 313" stroke="#C0C0C0" stroke-width="1" opacity="1"></path><path fill="none" d="M 167.5 36 L 167.5 313" stroke="#C0C0C0" stroke-width="1" opacity="1"></path><path fill="none" d="M 252.5 36 L 252.5 313" stroke="#C0C0C0" stroke-width="1" opacity="1"></path><path fill="none" d="M 336.5 36 L 336.5 313" stroke="#C0C0C0" stroke-width="1" opacity="1"></path><path fill="none" d="M 420.5 36 L 420.5 313" stroke="#C0C0C0" stroke-width="1" opacity="1"></path><path fill="none" d="M 505.5 36 L 505.5 313" stroke="#C0C0C0" stroke-width="1" opacity="1"></path><path fill="none" d="M 590.5 36 L 590.5 313" stroke="#C0C0C0" stroke-width="1" opacity="1"></path></g><rect x="84" y="36" width="506" height="277" stroke="#026FC1" stroke-width="2" fill="none"></rect><g class="highcharts-axis"><path fill="none" d="M 84 71.5 L 74 71.5" stroke="#C0D0E0" stroke-width="1" opacity="1"></path><path fill="none" d="M 84 105.5 L 74 105.5" stroke="#C0D0E0" stroke-width="1" opacity="1"></path><path fill="none" d="M 84 140.5 L 74 140.5" stroke="#C0D0E0" stroke-width="1" opacity="1"></path><path fill="none" d="M 84 175.5 L 74 175.5" stroke="#C0D0E0" stroke-width="1" opacity="1"></path><path fill="none" d="M 84 209.5 L 74 209.5" stroke="#C0D0E0" stroke-width="1" opacity="1"></path><path fill="none" d="M 84 244.5 L 74 244.5" stroke="#C0D0E0" stroke-width="1" opacity="1"></path><path fill="none" d="M 84 278.5 L 74 278.5" stroke="#C0D0E0" stroke-width="1" opacity="1"></path><path fill="none" d="M 84 313.5 L 74 313.5" stroke="#C0D0E0" stroke-width="1" opacity="1"></path><path fill="none" d="M 84 35.5 L 74 35.5" stroke="#C0D0E0" stroke-width="1" opacity="1"></path><path fill="none" d="M 83.5 36 L 83.5 313" stroke="#C0D0E0" stroke-width="1"></path></g><g class="highcharts-axis"><path fill="none" d="M 83.5 313 L 83.5 323" stroke="#C0D0E0" stroke-width="1" opacity="1"></path><path fill="none" d="M 167.5 313 L 167.5 323" stroke="#C0D0E0" stroke-width="1" opacity="1"></path><path fill="none" d="M 252.5 313 L 252.5 323" stroke="#C0D0E0" stroke-width="1" opacity="1"></path><path fill="none" d="M 336.5 313 L 336.5 323" stroke="#C0D0E0" stroke-width="1" opacity="1"></path><path fill="none" d="M 420.5 313 L 420.5 323" stroke="#C0D0E0" stroke-width="1" opacity="1"></path><path fill="none" d="M 505.5 313 L 505.5 323" stroke="#C0D0E0" stroke-width="1" opacity="1"></path><path fill="none" d="M 590.5 313 L 590.5 323" stroke="#C0D0E0" stroke-width="1" opacity="1"></path><text x="337" text-anchor="middle" transform="translate(0,0)" class=" highcharts-yaxis-title" style="color:#000000;font-size:10px;font-family:'ubuntu', sans-serif;text-transform:none;font-weight:normal;fill:#000000;" y="347"><tspan>Installation Count</tspan></text><path fill="none" d="M 84 313.5 L 590 313.5" stroke="#C0D0E0" stroke-width="1"></path></g><g class="highcharts-series-group"><g class="highcharts-series highcharts-series-0" transform="translate(590,313) rotate(90) scale(-1,1) scale(1 1)" width="506" height="277" clip-path="url(#highcharts-138)"><rect x="250.5" y="309.5" width="17" height="197" stroke="#FFFFFF" stroke-width="1" fill="#50b432" rx="0" ry="0"></rect><rect x="216.5" y="318.5" width="17" height="188" stroke="#FFFFFF" stroke-width="1" fill="#ED561B" rx="0" ry="0"></rect><rect x="181.5" y="442.5" width="17" height="64" stroke="#FFFFFF" stroke-width="1" fill="#DDDF00" rx="0" ry="0"></rect><rect x="147.5" y="382.5" width="17" height="124" stroke="#FFFFFF" stroke-width="1" fill="#24CBE5" rx="0" ry="0"></rect><rect x="112.5" y="490.5" width="17" height="16" stroke="#FFFFFF" stroke-width="1" fill="#64e572" rx="0" ry="0"></rect><rect x="77.5" y="48.5" width="17" height="458" stroke="#FFFFFF" stroke-width="1" fill="#FF9655" rx="0" ry="0"></rect><rect x="43.5" y="423.5" width="17" height="83" stroke="#FFFFFF" stroke-width="1" fill="#FFF263" rx="0" ry="0"></rect><rect x="8.5" y="476.5" width="17" height="30" stroke="#FFFFFF" stroke-width="1" fill="#6AF9C4" rx="0" ry="0"></rect></g><g class="highcharts-markers highcharts-series-0" transform="translate(590,313) rotate(90) scale(-1,1) scale(1 1)" width="506" height="277" clip-path="none"></g><g class="highcharts-series highcharts-series-1" transform="translate(590,313) rotate(90) scale(-1,1) scale(1 1)" width="506" height="277" clip-path="url(#highcharts-138)"></g><g class="highcharts-markers highcharts-series-1" transform="translate(590,313) rotate(90) scale(-1,1) scale(1 1)" width="506" height="277" clip-path="none"></g></g><text x="300" text-anchor="middle" class="highcharts-title" style="color:#000000;font-size:10px;font-family:'ubuntu', sans-serif;text-transform:none;font-weight:bold;fill:#000000;width:536px;" y="17"></text><g class="highcharts-data-labels highcharts-series-0" transform="translate(84,36) scale(1 1)" opacity="1"><g style="cursor:pointer;" transform="translate(197,8)"><text x="5" style="font-size:10px;font-weight:bold;font-family:'ubuntu', sans-serif;color:#333;text-shadow:0 0 6px #ffffff, 0 0 3px #ffffff;fill:#333;text-rendering:geometricprecision;" y="15"><tspan>467</tspan></text></g><g style="cursor:pointer;" transform="translate(188,42)"><text x="5" style="font-size:10px;font-weight:bold;font-family:'ubuntu', sans-serif;color:#333;text-shadow:0 0 6px #ffffff, 0 0 3px #ffffff;fill:#333;text-rendering:geometricprecision;" y="15"><tspan>445</tspan></text></g><g style="cursor:pointer;" transform="translate(64,77)"><text x="5" style="font-size:10px;font-weight:bold;font-family:'ubuntu', sans-serif;color:#333;text-shadow:0 0 6px #ffffff, 0 0 3px #ffffff;fill:#333;text-rendering:geometricprecision;" y="15"><tspan>152</tspan></text></g><g style="cursor:pointer;" transform="translate(124,111)"><text x="5" style="font-size:10px;font-weight:bold;font-family:'ubuntu', sans-serif;color:#333;text-shadow:0 0 6px #ffffff, 0 0 3px #ffffff;fill:#333;text-rendering:geometricprecision;" y="15"><tspan>294</tspan></text></g><g style="cursor:pointer;" transform="translate(16,146)"><text x="5" style="font-size:10px;font-weight:bold;font-family:'ubuntu', sans-serif;color:#333;text-shadow:0 0 6px #ffffff, 0 0 3px #ffffff;fill:#333;text-rendering:geometricprecision;" y="15"><tspan>38</tspan></text></g><g style="cursor:pointer;" transform="translate(458,181)"><text x="5" style="font-size:10px;font-weight:bold;font-family:'ubuntu', sans-serif;color:#333;text-shadow:0 0 6px #ffffff, 0 0 3px #ffffff;fill:#333;text-rendering:geometricprecision;" y="15"><tspan>1087</tspan></text></g><g style="cursor:pointer;" transform="translate(83,215)"><text x="5" style="font-size:10px;font-weight:bold;font-family:'ubuntu', sans-serif;color:#333;text-shadow:0 0 6px #ffffff, 0 0 3px #ffffff;fill:#333;text-rendering:geometricprecision;" y="15"><tspan>196</tspan></text></g><g style="cursor:pointer;" transform="translate(30,250)"><text x="5" style="font-size:10px;font-weight:bold;font-family:'ubuntu', sans-serif;color:#333;text-shadow:0 0 6px #ffffff, 0 0 3px #ffffff;fill:#333;text-rendering:geometricprecision;" y="15"><tspan>71</tspan></text></g></g><g class="highcharts-data-labels highcharts-series-1" transform="translate(84,36) scale(1 1)" opacity="1"></g><g class="highcharts-legend" transform="translate(213,360)"><g><g><g class="highcharts-legend-item" transform="translate(8,3)"><text x="21" style="color:#333;font-size:9pt;font-weight:normal;cursor:pointer;font-family:'lucida grande','lucida sans unicode',arial,helvetica,sans-serif;text-transform:none;fill:#333;" text-anchor="start" y="15"></text></g></g></g></g><g class="highcharts-axis-labels highcharts-xaxis-labels"><text x="69" style="color:#000000;cursor:default;font-size:10px;font-family:'ubuntu', sans-serif;text-transform:none;font-weight:normal;fill:#000000;width:188px;text-overflow:clip;" text-anchor="end" transform="translate(0,0)" y="58" opacity="1"><tspan>EdgePACS</tspan></text><text x="69" style="color:#000000;cursor:default;font-size:10px;font-family:'ubuntu', sans-serif;text-transform:none;font-weight:normal;fill:#000000;width:188px;text-overflow:clip;" text-anchor="end" transform="translate(0,0)" y="92" opacity="1"><tspan>Radion</tspan></text><text x="69" style="color:#000000;cursor:default;font-size:10px;font-family:'ubuntu', sans-serif;text-transform:none;font-weight:normal;fill:#000000;width:188px;text-overflow:clip;" text-anchor="end" transform="translate(0,0)" y="127" opacity="1"><tspan>Phoenix</tspan></text><text x="69" style="color:#000000;cursor:default;font-size:10px;font-family:'ubuntu', sans-serif;text-transform:none;font-weight:normal;fill:#000000;width:188px;text-overflow:clip;" text-anchor="end" transform="translate(0,0)" y="162" opacity="1"><tspan>Titus</tspan></text><text x="69" style="color:#000000;cursor:default;font-size:10px;font-family:'ubuntu', sans-serif;text-transform:none;font-weight:normal;fill:#000000;width:188px;text-overflow:clip;" text-anchor="end" transform="translate(0,0)" y="196" opacity="1"><tspan>Stream</tspan></text><text x="69" style="color:#000000;cursor:default;font-size:10px;font-family:'ubuntu', sans-serif;text-transform:none;font-weight:normal;fill:#000000;width:188px;text-overflow:clip;" text-anchor="end" transform="translate(0,0)" y="231" opacity="1"><tspan>iMAGIC</tspan></text><text x="69" style="color:#000000;cursor:default;font-size:10px;font-family:'ubuntu', sans-serif;text-transform:none;font-weight:normal;fill:#000000;width:188px;text-overflow:clip;" text-anchor="end" transform="translate(0,0)" y="266" opacity="1"><tspan>Focus</tspan></text><text x="69" style="color:#000000;cursor:default;font-size:10px;font-family:'ubuntu', sans-serif;text-transform:none;font-weight:normal;fill:#000000;width:188px;text-overflow:clip;" text-anchor="end" transform="translate(0,0)" y="300" opacity="1"><tspan>Edge Router</tspan></text></g><g class="highcharts-axis-labels highcharts-yaxis-labels"><text x="84" style="color:#000000;cursor:default;font-size:10px;font-family:'ubuntu', sans-serif;text-transform:none;font-weight:normal;fill:#000000;width:74px;text-overflow:clip;" text-anchor="middle" transform="translate(0,0)" y="331" opacity="1"><tspan>0</tspan></text><text x="168.33333333333334" style="color:#000000;cursor:default;font-size:10px;font-family:'ubuntu', sans-serif;text-transform:none;font-weight:normal;fill:#000000;width:74px;text-overflow:clip;" text-anchor="middle" transform="translate(0,0)" y="331" opacity="1"><tspan>200</tspan></text><text x="252.66666666666669" style="color:#000000;cursor:default;font-size:10px;font-family:'ubuntu', sans-serif;text-transform:none;font-weight:normal;fill:#000000;width:74px;text-overflow:clip;" text-anchor="middle" transform="translate(0,0)" y="331" opacity="1"><tspan>400</tspan></text><text x="337" style="color:#000000;cursor:default;font-size:10px;font-family:'ubuntu', sans-serif;text-transform:none;font-weight:normal;fill:#000000;width:74px;text-overflow:clip;" text-anchor="middle" transform="translate(0,0)" y="331" opacity="1"><tspan>600</tspan></text><text x="421.33333333333337" style="color:#000000;cursor:default;font-size:10px;font-family:'ubuntu', sans-serif;text-transform:none;font-weight:normal;fill:#000000;width:74px;text-overflow:clip;" text-anchor="middle" transform="translate(0,0)" y="331" opacity="1"><tspan>800</tspan></text><text x="505.6666666666667" style="color:#000000;cursor:default;font-size:10px;font-family:'ubuntu', sans-serif;text-transform:none;font-weight:normal;fill:#000000;width:74px;text-overflow:clip;" text-anchor="middle" transform="translate(0,0)" y="331" opacity="1"><tspan>1000</tspan></text><text x="577.546875" style="color:#000000;cursor:default;font-size:10px;font-family:'ubuntu', sans-serif;text-transform:none;font-weight:normal;fill:#000000;width:74px;text-overflow:clip;" text-anchor="middle" transform="translate(0,0)" y="331" opacity="1"><tspan>1200</tspan></text></g><g class="highcharts-tooltip" display="none" style="cursor:default;padding:0;pointer-events:none;white-space:nowrap;" transform="translate(0,0)"><path fill="rgb(255, 255, 255)" fill-opacity=" 0.85" d="M 3.5 0.5 L 13.5 0.5 C 16.5 0.5 16.5 0.5 16.5 3.5 L 16.5 13.5 C 16.5 16.5 16.5 16.5 13.5 16.5 L 3.5 16.5 C 0.5 16.5 0.5 16.5 0.5 13.5 L 0.5 3.5 C 0.5 0.5 0.5 0.5 3.5 0.5"></path><text x="8" style="font-size:12px;color:#000000;fill:#000000;" y="20"></text></g></svg>