<?xml version="1.0" standalone="no"?><!DOCTYPE svg PUBLIC "-//W3C//DTD SVG 1.1//EN" "http://www.w3.org/Graphics/SVG/1.1/DTD/svg11.dtd"><svg xmlns:xlink="http://www.w3.org/1999/xlink" version="1.1" style="font-family:dosis, sans-serif;font-size:12px;" xmlns="http://www.w3.org/2000/svg" width="600" height="400"><desc>Created with Highcharts 4.2.7</desc><defs><clipPath id="highcharts-130"><rect x="0" y="0" width="258" height="507"></rect></clipPath></defs><rect x="83" y="45" width="507" height="258" fill="rgb(255, 255, 255)" fill-opacity=" .9"></rect><g class="highcharts-grid"><path fill="none" d="M 83 77.5 L 590 77.5" stroke="#C0C0C0" stroke-width="1" opacity="1"></path><path fill="none" d="M 83 110.5 L 590 110.5" stroke="#C0C0C0" stroke-width="1" opacity="1"></path><path fill="none" d="M 83 142.5 L 590 142.5" stroke="#C0C0C0" stroke-width="1" opacity="1"></path><path fill="none" d="M 83 174.5 L 590 174.5" stroke="#C0C0C0" stroke-width="1" opacity="1"></path><path fill="none" d="M 83 206.5 L 590 206.5" stroke="#C0C0C0" stroke-width="1" opacity="1"></path><path fill="none" d="M 83 239.5 L 590 239.5" stroke="#C0C0C0" stroke-width="1" opacity="1"></path><path fill="none" d="M 83 271.5 L 590 271.5" stroke="#C0C0C0" stroke-width="1" opacity="1"></path><path fill="none" d="M 83 303.5 L 590 303.5" stroke="#C0C0C0" stroke-width="1" opacity="1"></path><path fill="none" d="M 83 44.5 L 590 44.5" stroke="#C0C0C0" stroke-width="1" opacity="1"></path></g><g class="highcharts-grid"><path fill="none" d="M 82.5 45 L 82.5 303" stroke="#E0E0E0" stroke-width="1" opacity="1"></path><path fill="none" d="M 99.5 45 L 99.5 303" stroke="#E0E0E0" stroke-width="1" opacity="1"></path><path fill="none" d="M 116.5 45 L 116.5 303" stroke="#E0E0E0" stroke-width="1" opacity="1"></path><path fill="none" d="M 133.5 45 L 133.5 303" stroke="#E0E0E0" stroke-width="1" opacity="1"></path><path fill="none" d="M 150.5 45 L 150.5 303" stroke="#E0E0E0" stroke-width="1" opacity="1"></path><path fill="none" d="M 167.5 45 L 167.5 303" stroke="#E0E0E0" stroke-width="1" opacity="1"></path><path fill="none" d="M 183.5 45 L 183.5 303" stroke="#E0E0E0" stroke-width="1" opacity="1"></path><path fill="none" d="M 200.5 45 L 200.5 303" stroke="#E0E0E0" stroke-width="1" opacity="1"></path><path fill="none" d="M 217.5 45 L 217.5 303" stroke="#E0E0E0" stroke-width="1" opacity="1"></path><path fill="none" d="M 234.5 45 L 234.5 303" stroke="#E0E0E0" stroke-width="1" opacity="1"></path><path fill="none" d="M 251.5 45 L 251.5 303" stroke="#E0E0E0" stroke-width="1" opacity="1"></path><path fill="none" d="M 268.5 45 L 268.5 303" stroke="#E0E0E0" stroke-width="1" opacity="1"></path><path fill="none" d="M 285.5 45 L 285.5 303" stroke="#E0E0E0" stroke-width="1" opacity="1"></path><path fill="none" d="M 302.5 45 L 302.5 303" stroke="#E0E0E0" stroke-width="1" opacity="1"></path><path fill="none" d="M 319.5 45 L 319.5 303" stroke="#E0E0E0" stroke-width="1" opacity="1"></path><path fill="none" d="M 336.5 45 L 336.5 303" stroke="#E0E0E0" stroke-width="1" opacity="1"></path><path fill="none" d="M 352.5 45 L 352.5 303" stroke="#E0E0E0" stroke-width="1" opacity="1"></path><path fill="none" d="M 369.5 45 L 369.5 303" stroke="#E0E0E0" stroke-width="1" opacity="1"></path><path fill="none" d="M 386.5 45 L 386.5 303" stroke="#E0E0E0" stroke-width="1" opacity="1"></path><path fill="none" d="M 403.5 45 L 403.5 303" stroke="#E0E0E0" stroke-width="1" opacity="1"></path><path fill="none" d="M 420.5 45 L 420.5 303" stroke="#E0E0E0" stroke-width="1" opacity="1"></path><path fill="none" d="M 437.5 45 L 437.5 303" stroke="#E0E0E0" stroke-width="1" opacity="1"></path><path fill="none" d="M 454.5 45 L 454.5 303" stroke="#E0E0E0" stroke-width="1" opacity="1"></path><path fill="none" d="M 471.5 45 L 471.5 303" stroke="#E0E0E0" stroke-width="1" opacity="1"></path><path fill="none" d="M 488.5 45 L 488.5 303" stroke="#E0E0E0" stroke-width="1" opacity="1"></path><path fill="none" d="M 505.5 45 L 505.5 303" stroke="#E0E0E0" stroke-width="1" opacity="1"></path><path fill="none" d="M 521.5 45 L 521.5 303" stroke="#E0E0E0" stroke-width="1" opacity="1"></path><path fill="none" d="M 538.5 45 L 538.5 303" stroke="#E0E0E0" stroke-width="1" opacity="1"></path><path fill="none" d="M 555.5 45 L 555.5 303" stroke="#E0E0E0" stroke-width="1" opacity="1"></path><path fill="none" d="M 572.5 45 L 572.5 303" stroke="#E0E0E0" stroke-width="1" opacity="1"></path><path fill="none" d="M 590.5 45 L 590.5 303" stroke="#E0E0E0" stroke-width="1" opacity="1"></path><path fill="none" d="M 82.5 45 L 82.5 303" stroke="#C0C0C0" stroke-width="1" opacity="1"></path><path fill="none" d="M 167.5 45 L 167.5 303" stroke="#C0C0C0" stroke-width="1" opacity="1"></path><path fill="none" d="M 251.5 45 L 251.5 303" stroke="#C0C0C0" stroke-width="1" opacity="1"></path><path fill="none" d="M 336.5 45 L 336.5 303" stroke="#C0C0C0" stroke-width="1" opacity="1"></path><path fill="none" d="M 420.5 45 L 420.5 303" stroke="#C0C0C0" stroke-width="1" opacity="1"></path><path fill="none" d="M 505.5 45 L 505.5 303" stroke="#C0C0C0" stroke-width="1" opacity="1"></path><path fill="none" d="M 590.5 45 L 590.5 303" stroke="#C0C0C0" stroke-width="1" opacity="1"></path></g><g class="highcharts-axis"><path fill="none" d="M 83 77.5 L 73 77.5" stroke="#C0D0E0" stroke-width="1" opacity="1"></path><path fill="none" d="M 83 110.5 L 73 110.5" stroke="#C0D0E0" stroke-width="1" opacity="1"></path><path fill="none" d="M 83 142.5 L 73 142.5" stroke="#C0D0E0" stroke-width="1" opacity="1"></path><path fill="none" d="M 83 174.5 L 73 174.5" stroke="#C0D0E0" stroke-width="1" opacity="1"></path><path fill="none" d="M 83 206.5 L 73 206.5" stroke="#C0D0E0" stroke-width="1" opacity="1"></path><path fill="none" d="M 83 239.5 L 73 239.5" stroke="#C0D0E0" stroke-width="1" opacity="1"></path><path fill="none" d="M 83 271.5 L 73 271.5" stroke="#C0D0E0" stroke-width="1" opacity="1"></path><path fill="none" d="M 83 303.5 L 73 303.5" stroke="#C0D0E0" stroke-width="1" opacity="1"></path><path fill="none" d="M 83 44.5 L 73 44.5" stroke="#C0D0E0" stroke-width="1" opacity="1"></path><path fill="none" d="M 82.5 45 L 82.5 303" stroke="#C0D0E0" stroke-width="1"></path></g><g class="highcharts-axis"><text x="336.5" text-anchor="middle" transform="translate(0,0)" class=" highcharts-yaxis-title" style="color:#707070;font-size:12px;font-family:dosis, sans-serif;text-transform:uppercase;font-weight:normal;fill:#707070;" y="343"><tspan>Installation Count</tspan></text><path fill="none" d="M 83 303.5 L 590 303.5"></path></g><g class="highcharts-series-group"><g class="highcharts-series highcharts-series-0" transform="translate(590,303) rotate(90) scale(-1,1) scale(1 1)" width="507" height="258" clip-path="url(#highcharts-130)"><rect x="233.5" y="310.5" width="16" height="197" stroke="#FFFFFF" stroke-width="1" fill="#50B432" rx="0" ry="0"></rect><rect x="201.5" y="319.5" width="16" height="188" stroke="#FFFFFF" stroke-width="1" fill="#ED561B" rx="0" ry="0"></rect><rect x="169.5" y="443.5" width="16" height="64" stroke="#FFFFFF" stroke-width="1" fill="#DDDF00" rx="0" ry="0"></rect><rect x="136.5" y="383.5" width="16" height="124" stroke="#FFFFFF" stroke-width="1" fill="#24CBE5" rx="0" ry="0"></rect><rect x="104.5" y="491.5" width="16" height="16" stroke="#FFFFFF" stroke-width="1" fill="#64E572" rx="0" ry="0"></rect><rect x="72.5" y="48.5" width="16" height="459" stroke="#FFFFFF" stroke-width="1" fill="#FF9655" rx="0" ry="0"></rect><rect x="40.5" y="424.5" width="16" height="83" stroke="#FFFFFF" stroke-width="1" fill="#FFF263" rx="0" ry="0"></rect><rect x="7.5" y="477.5" width="16" height="30" stroke="#FFFFFF" stroke-width="1" fill="#6AF9C4" rx="0" ry="0"></rect></g><g class="highcharts-markers highcharts-series-0" transform="translate(590,303) rotate(90) scale(-1,1) scale(1 1)" width="507" height="258" clip-path="none"></g><g class="highcharts-series highcharts-series-1" transform="translate(590,303) rotate(90) scale(-1,1) scale(1 1)" width="507" height="258" clip-path="url(#highcharts-130)"></g><g class="highcharts-markers highcharts-series-1" transform="translate(590,303) rotate(90) scale(-1,1) scale(1 1)" width="507" height="258" clip-path="none"></g></g><text x="300" text-anchor="middle" class="highcharts-title" style="color:#333;font-size:16px;font-family:dosis, sans-serif;text-transform:uppercase;font-weight:bold;fill:#333;width:536px;" y="22"><tspan>AshvaTech Product Installation Count</tspan></text><g class="highcharts-data-labels highcharts-series-0" transform="translate(83,45) scale(1 1)" opacity="1"><g style="cursor:pointer;" transform="translate(197,6)"><text x="5" style="font-size:10px;font-weight:bold;font-family:'ubuntu', sans-serif;color:#333;text-shadow:0 0 6px #ffffff, 0 0 3px #ffffff;fill:#333;text-rendering:geometricprecision;" y="15"><tspan>467</tspan></text></g><g style="cursor:pointer;" transform="translate(188,38)"><text x="5" style="font-size:10px;font-weight:bold;font-family:'ubuntu', sans-serif;color:#333;text-shadow:0 0 6px #ffffff, 0 0 3px #ffffff;fill:#333;text-rendering:geometricprecision;" y="15"><tspan>445</tspan></text></g><g style="cursor:pointer;" transform="translate(64,70)"><text x="5" style="font-size:10px;font-weight:bold;font-family:'ubuntu', sans-serif;color:#333;text-shadow:0 0 6px #ffffff, 0 0 3px #ffffff;fill:#333;text-rendering:geometricprecision;" y="15"><tspan>152</tspan></text></g><g style="cursor:pointer;" transform="translate(124,103)"><text x="5" style="font-size:10px;font-weight:bold;font-family:'ubuntu', sans-serif;color:#333;text-shadow:0 0 6px #ffffff, 0 0 3px #ffffff;fill:#333;text-rendering:geometricprecision;" y="15"><tspan>294</tspan></text></g><g style="cursor:pointer;" transform="translate(16,135)"><text x="5" style="font-size:10px;font-weight:bold;font-family:'ubuntu', sans-serif;color:#333;text-shadow:0 0 6px #ffffff, 0 0 3px #ffffff;fill:#333;text-rendering:geometricprecision;" y="15"><tspan>38</tspan></text></g><g style="cursor:pointer;" transform="translate(459,167)"><text x="5" style="font-size:10px;font-weight:bold;font-family:'ubuntu', sans-serif;color:#333;text-shadow:0 0 6px #ffffff, 0 0 3px #ffffff;fill:#333;text-rendering:geometricprecision;" y="15"><tspan>1087</tspan></text></g><g style="cursor:pointer;" transform="translate(83,199)"><text x="5" style="font-size:10px;font-weight:bold;font-family:'ubuntu', sans-serif;color:#333;text-shadow:0 0 6px #ffffff, 0 0 3px #ffffff;fill:#333;text-rendering:geometricprecision;" y="15"><tspan>196</tspan></text></g><g style="cursor:pointer;" transform="translate(30,232)"><text x="5" style="font-size:10px;font-weight:bold;font-family:'ubuntu', sans-serif;color:#333;text-shadow:0 0 6px #ffffff, 0 0 3px #ffffff;fill:#333;text-rendering:geometricprecision;" y="15"><tspan>71</tspan></text></g></g><g class="highcharts-data-labels highcharts-series-1" transform="translate(83,45) scale(1 1)" opacity="1"></g><g class="highcharts-legend" transform="translate(216,358)"><g><g><g class="highcharts-legend-item" transform="translate(8,3)"><text x="21" style="color:#333;font-size:13px;font-weight:bold;cursor:pointer;font-family:dosis, sans-serif;text-transform:none;fill:#333;" text-anchor="start" y="16"><tspan>Ashva Tech Products List</tspan></text><rect x="0" y="4" width="16" height="13" fill="#CCC"></rect></g></g></g></g><g class="highcharts-axis-labels highcharts-xaxis-labels"><text x="68" style="color:#606060;cursor:default;font-size:12px;font-family:dosis, sans-serif;text-transform:none;font-weight:normal;fill:#606060;width:188px;text-overflow:clip;" text-anchor="end" transform="translate(0,0)" y="66" opacity="1"><tspan>EdgePACS</tspan></text><text x="68" style="color:#606060;cursor:default;font-size:12px;font-family:dosis, sans-serif;text-transform:none;font-weight:normal;fill:#606060;width:188px;text-overflow:clip;" text-anchor="end" transform="translate(0,0)" y="98" opacity="1"><tspan>Radion</tspan></text><text x="68" style="color:#606060;cursor:default;font-size:12px;font-family:dosis, sans-serif;text-transform:none;font-weight:normal;fill:#606060;width:188px;text-overflow:clip;" text-anchor="end" transform="translate(0,0)" y="130" opacity="1"><tspan>Phoenix</tspan></text><text x="68" style="color:#606060;cursor:default;font-size:12px;font-family:dosis, sans-serif;text-transform:none;font-weight:normal;fill:#606060;width:188px;text-overflow:clip;" text-anchor="end" transform="translate(0,0)" y="162" opacity="1"><tspan>Titus</tspan></text><text x="68" style="color:#606060;cursor:default;font-size:12px;font-family:dosis, sans-serif;text-transform:none;font-weight:normal;fill:#606060;width:188px;text-overflow:clip;" text-anchor="end" transform="translate(0,0)" y="195" opacity="1"><tspan>Stream</tspan></text><text x="68" style="color:#606060;cursor:default;font-size:12px;font-family:dosis, sans-serif;text-transform:none;font-weight:normal;fill:#606060;width:188px;text-overflow:clip;" text-anchor="end" transform="translate(0,0)" y="227" opacity="1"><tspan>iMAGIC</tspan></text><text x="68" style="color:#606060;cursor:default;font-size:12px;font-family:dosis, sans-serif;text-transform:none;font-weight:normal;fill:#606060;width:188px;text-overflow:clip;" text-anchor="end" transform="translate(0,0)" y="259" opacity="1"><tspan>Focus</tspan></text><text x="68" style="color:#606060;cursor:default;font-size:12px;font-family:dosis, sans-serif;text-transform:none;font-weight:normal;fill:#606060;width:188px;text-overflow:clip;" text-anchor="end" transform="translate(0,0)" y="291" opacity="1"><tspan>Edge Router</tspan></text></g><g class="highcharts-axis-labels highcharts-yaxis-labels"><text x="83" style="color:#606060;cursor:default;font-size:12px;font-family:dosis, sans-serif;text-transform:none;font-weight:normal;fill:#606060;width:75px;text-overflow:clip;" text-anchor="middle" transform="translate(0,0)" y="323" opacity="1"><tspan>0</tspan></text><text x="167.5" style="color:#606060;cursor:default;font-size:12px;font-family:dosis, sans-serif;text-transform:none;font-weight:normal;fill:#606060;width:75px;text-overflow:clip;" text-anchor="middle" transform="translate(0,0)" y="323" opacity="1"><tspan>200</tspan></text><text x="252" style="color:#606060;cursor:default;font-size:12px;font-family:dosis, sans-serif;text-transform:none;font-weight:normal;fill:#606060;width:75px;text-overflow:clip;" text-anchor="middle" transform="translate(0,0)" y="323" opacity="1"><tspan>400</tspan></text><text x="336.5" style="color:#606060;cursor:default;font-size:12px;font-family:dosis, sans-serif;text-transform:none;font-weight:normal;fill:#606060;width:75px;text-overflow:clip;" text-anchor="middle" transform="translate(0,0)" y="323" opacity="1"><tspan>600</tspan></text><text x="421" style="color:#606060;cursor:default;font-size:12px;font-family:dosis, sans-serif;text-transform:none;font-weight:normal;fill:#606060;width:75px;text-overflow:clip;" text-anchor="middle" transform="translate(0,0)" y="323" opacity="1"><tspan>800</tspan></text><text x="505.5" style="color:#606060;cursor:default;font-size:12px;font-family:dosis, sans-serif;text-transform:none;font-weight:normal;fill:#606060;width:75px;text-overflow:clip;" text-anchor="middle" transform="translate(0,0)" y="323" opacity="1"><tspan>1000</tspan></text><text x="578.21875" style="color:#606060;cursor:default;font-size:12px;font-family:dosis, sans-serif;text-transform:none;font-weight:normal;fill:#606060;width:75px;text-overflow:clip;" text-anchor="middle" transform="translate(0,0)" y="323" opacity="1"><tspan>1200</tspan></text></g><g class="highcharts-tooltip" display="none" style="cursor:default;padding:0;pointer-events:none;white-space:nowrap;" transform="translate(0,0)"><path fill="rgb(219,219,216)" fill-opacity="0.8" d="M 3 0 L 13 0 C 16 0 16 0 16 3 L 16 13 C 16 16 16 16 13 16 L 3 16 C 0 16 0 16 0 13 L 0 3 C 0 0 0 0 3 0"></path><text x="8" style="font-size:12px;color:#333;fill:#333;" y="20"></text></g><text x="590" text-anchor="end" style="cursor:pointer;color:#666;font-size:9px;fill:#666;" y="395">meta-chart.com</text></svg>